<?xml version="1.0" standalone="no"?>
<!DOCTYPE svg PUBLIC "-//W3C//DTD SVG 20010904//EN"
 "http://www.w3.org/TR/2001/REC-SVG-20010904/DTD/svg10.dtd">
<svg version="1.0" xmlns="http://www.w3.org/2000/svg"
 width="512.000000pt" height="512.000000pt" viewBox="0 0 512.000000 512.000000"
 preserveAspectRatio="xMidYMid meet">
<metadata>
Created by potrace 1.11, written by Peter Selinger 2001-2013
</metadata>
<g transform="translate(0.000000,512.000000) scale(0.100000,-0.100000)"
fill="#000000" stroke="none">
<path d="M2378 5116 c-1 -2 -34 -6 -73 -9 -506 -44 -1060 -288 -1446 -637
-358 -324 -611 -718 -747 -1165 -42 -135 -58 -209 -89 -405 -18 -113 -24 -453
-11 -590 20 -207 85 -476 163 -676 120 -307 291 -578 520 -823 88 -93 168
-168 280 -260 220 -179 542 -348 842 -440 129 -40 249 -65 428 -91 100 -15
445 -20 545 -9 104 12 169 20 194 25 12 2 37 7 56 10 355 63 749 238 1050 466
152 114 219 175 345 309 338 361 585 866 651 1329 2 19 6 44 9 55 19 95 27
458 13 605 -21 205 -71 430 -136 605 -52 141 -72 187 -132 305 -212 414 -529
760 -930 1014 -246 155 -608 296 -875 341 -16 3 -39 7 -51 9 -12 2 -45 7 -74
11 -29 4 -62 9 -74 12 -23 5 -452 13 -458 9z m-8 -426 c0 -25 -5 -40 -12 -41
-31 -1 -107 -11 -154 -20 -28 -5 -64 -12 -80 -15 -35 -6 -158 -40 -234 -64
-193 -62 -414 -178 -582 -306 -46 -35 -88 -64 -94 -64 -6 0 -21 11 -33 24
l-22 23 63 50 c287 228 679 394 1033 439 28 3 51 7 52 8 1 1 16 3 33 4 29 2
30 1 30 -38z m510 24 c37 -5 106 -18 181 -33 254 -52 607 -222 836 -403 l62
-49 -21 -24 c-12 -14 -26 -25 -31 -25 -4 0 -41 24 -80 54 -115 86 -209 143
-347 212 -71 35 -133 64 -138 64 -5 0 -37 12 -72 26 -83 34 -281 84 -395 99
-22 3 -49 8 -60 10 -11 2 -30 4 -42 4 -20 1 -23 6 -23 42 l0 42 48 -7 c26 -4
63 -9 82 -12z m-510 -855 l0 -697 -22 -5 c-13 -3 -37 -11 -55 -18 l-32 -13
-486 485 c-267 267 -485 490 -485 495 1 11 100 85 196 148 69 44 227 127 309
161 142 60 439 134 563 141 9 1 12 -145 12 -697z m540 675 c305 -53 611 -187
862 -377 l67 -51 -490 -490 -490 -490 -32 13 c-18 7 -42 15 -54 18 l-23 5 0
698 0 698 38 -5 c20 -2 75 -11 122 -19z m-2008 -688 c-200 -256 -352 -594
-407 -906 -3 -19 -8 -44 -10 -55 -2 -11 -6 -46 -10 -77 l-8 -58 -38 0 -39 0 6
58 c3 31 10 80 15 108 5 28 12 64 15 80 24 136 103 368 174 514 41 85 115 216
130 230 3 3 18 25 34 50 16 25 51 73 79 108 l50 63 28 -27 28 -27 -47 -61z
m3458 -62 c82 -120 172 -290 228 -431 51 -128 120 -385 127 -473 1 -14 5 -49
9 -77 l7 -53 -40 0 c-36 0 -41 3 -42 23 0 12 -2 31 -4 42 -3 11 -7 39 -9 61
-38 308 -206 701 -414 966 l-50 63 27 28 26 28 33 -38 c19 -21 64 -83 102
-139z m-2370 -931 c0 -6 -9 -31 -20 -57 l-21 -46 -694 0 -694 0 5 23 c2 12 6
44 9 70 3 27 10 70 16 95 6 26 13 58 15 72 9 47 54 197 83 272 67 174 176 365
286 505 l40 51 488 -488 c268 -268 487 -492 487 -497z m2176 907 c70 -93 130
-191 192 -316 56 -112 133 -319 152 -409 23 -112 30 -148 35 -192 4 -26 8 -58
10 -70 l4 -23 -695 0 -695 0 -19 46 c-11 25 -20 50 -20 56 0 6 219 230 487
498 346 346 490 484 498 476 5 -6 29 -36 51 -66z m-1508 -960 c172 -78 215
-293 83 -421 -58 -56 -119 -79 -199 -75 -73 5 -129 32 -176 87 -94 111 -83
270 25 363 23 19 60 42 83 50 53 19 136 17 184 -4z m-2186 -452 c0 -13 2 -27
3 -33 0 -5 5 -32 9 -60 52 -347 188 -677 394 -950 68 -90 71 -103 28 -129 -22
-14 -46 14 -154 174 -198 293 -313 608 -357 976 l-6 44 41 0 c34 0 40 -3 42
-22z m1498 -24 c11 -25 20 -50 20 -56 0 -14 -963 -978 -976 -978 -9 1 -74 84
-131 170 -149 221 -275 554 -308 815 -4 28 -8 60 -9 73 l-3 22 694 0 694 0 19
-46z m2585 28 c-2 -11 -6 -43 -10 -73 -26 -211 -135 -537 -232 -691 -12 -21
-23 -40 -23 -43 0 -9 -54 -89 -124 -182 l-61 -81 -487 487 c-269 268 -488 492
-488 498 0 6 9 31 20 57 l21 46 694 0 c669 0 694 -1 690 -18z m171 -19 c-3
-21 -8 -60 -11 -87 -3 -28 -13 -82 -21 -120 -9 -39 -17 -80 -20 -91 -2 -11
-14 -56 -28 -100 -69 -228 -155 -408 -287 -600 -101 -147 -124 -172 -145 -159
-42 26 -40 39 18 116 223 292 373 663 413 1021 l6 57 40 0 40 0 -5 -37z
m-2402 -363 l46 -19 0 -696 c0 -658 -1 -696 -17 -691 -10 2 -43 8 -73 11 -313
39 -633 170 -912 374 -43 31 -77 60 -78 65 0 12 963 975 977 976 6 0 32 -9 57
-20z m1022 -462 c266 -266 484 -487 484 -493 0 -5 -28 -31 -63 -56 -284 -210
-608 -344 -932 -384 -27 -4 -58 -9 -67 -12 -17 -4 -18 34 -18 692 l0 696 43
19 c23 10 48 19 56 19 8 1 231 -216 497 -481z m-1891 -733 c229 -144 544 -259
790 -291 22 -2 49 -6 60 -9 11 -2 30 -4 43 -4 19 -1 22 -6 22 -41 l0 -41 -37
5 c-21 3 -58 8 -83 11 -25 2 -56 7 -70 10 -14 2 -50 10 -80 15 -285 56 -637
222 -878 413 l-63 49 28 28 27 28 76 -58 c41 -32 116 -84 165 -115z m2482 141
l22 -23 -22 -20 c-137 -120 -402 -274 -600 -348 -154 -58 -338 -106 -457 -119
-25 -3 -64 -8 -87 -12 l-43 -6 0 41 c0 32 4 41 18 42 246 16 575 120 826 262
66 37 218 140 276 186 32 26 40 26 67 -3z"/>
</g>
</svg>
